<svg xmlns="http://www.w3.org/2000/svg" xmlns:xlink="http://www.w3.org/1999/xlink" contentStyleType="text/css" data-diagram-type="CLASS" height="1056.25px" preserveAspectRatio="none" style="width:657px;height:1056px;" version="1.1" viewBox="0 0 657 1056" width="657.2917px" zoomAndPan="magnify"><defs><linearGradient id="gggfz0mpvb8fq0" x1="50%" x2="50%" y1="0%" y2="100%"><stop offset="0%" stop-color="#F3F3F3"/><stop offset="100%" stop-color="#E2E2E2"/></linearGradient><linearGradient id="gggfz0mpvb8fq1" x1="50%" x2="50%" y1="0%" y2="100%"><stop offset="0%" stop-color="#F3F3F3"/><stop offset="100%" stop-color="#888888"/></linearGradient></defs><g><!--class Pessoa--><g class="entity" data-entity="Pessoa" data-source-line="2" data-uid="ent0002" id="entity_Pessoa"><rect fill="url(#gggfz0mpvb8fq0)" height="232.1126" rx="7.8125" ry="7.8125" style="stroke:#F3F3F3;stroke-width:1.0417;" width="102.035" x="144.5313" y="120.2187"/><rect fill="url(#gggfz0mpvb8fq1)" height="44.5882" rx="7.8125" ry="7.8125" style="stroke:url(#gggfz0mpvb8fq1);stroke-width:1.0417;" width="102.035" x="144.5313" y="120.2187"/><rect fill="url(#gggfz0mpvb8fq1)" height="7.8125" style="stroke:url(#gggfz0mpvb8fq1);stroke-width:1.0417;" width="102.035" x="144.5313" y="156.9945"/><rect fill="none" height="232.1126" rx="7.8125" ry="7.8125" style="stroke:#F3F3F3;stroke-width:1.0417;" width="102.035" x="144.5313" y="120.2187"/><ellipse cx="163.624" cy="142.5129" fill="#DBDBDB" rx="10.4167" ry="10.4167" style="stroke:#A8A8A8;stroke-width:1.0417;"/><path d="M165.5283,146.9399 Q165.1051,147.1515 164.6331,147.2655 Q164.1611,147.3794 163.6566,147.3794 Q161.8011,147.3794 160.8245,146.175 Q159.8642,144.9543 159.8642,142.6593 Q159.8642,140.3481 160.8245,139.1437 Q161.8011,137.923 163.6566,137.923 Q164.1611,137.923 164.6331,138.0369 Q165.1214,138.1346 165.5283,138.3625 L165.5283,140.3644 Q165.0726,139.9412 164.6331,139.7459 Q164.1937,139.5343 163.7379,139.5343 Q162.7451,139.5343 162.2405,140.3319 Q161.736,141.1131 161.736,142.6593 Q161.736,144.1893 162.2405,144.9705 Q162.7451,145.7518 163.7379,145.7518 Q164.1937,145.7518 164.6331,145.5565 Q165.0726,145.3612 165.5283,144.938 L165.5283,146.9399 Z " fill="#336699"/><text fill="#303030" font-family="Verdana" font-size="11.4583" lengthAdjust="spacing" textLength="39.9307" x="188.5844" y="146.4796">Pessoa</text><line style="stroke:#F3F3F3;stroke-width:1.0417;" x1="145.5729" x2="245.5246" y1="164.807" y2="164.807"/><rect fill="none" height="6.25" style="stroke:#888888;stroke-width:1.0417;" width="6.25" x="152.8646" y="184.4969"/><text fill="#303030" font-family="Verdana" font-size="11.4583" lengthAdjust="spacing" textLength="55.16" x="174.7396" y="190.0262">nome: str</text><rect fill="none" height="6.25" style="stroke:#888888;stroke-width:1.0417;" width="6.25" x="152.8646" y="218.6685"/><text fill="#303030" font-family="Verdana" font-size="11.4583" lengthAdjust="spacing" textLength="54.276" x="174.7396" y="224.1977">email: str</text><ellipse cx="155.9896" cy="255.965" fill="none" rx="3.125" ry="3.125" style="stroke:#888888;stroke-width:1.0417;"/><text fill="#303030" font-family="Verdana" font-size="11.4583" lengthAdjust="spacing" textLength="32.4839" x="174.7396" y="258.3693">nome</text><ellipse cx="155.9896" cy="290.1366" fill="none" rx="3.125" ry="3.125" style="stroke:#888888;stroke-width:1.0417;"/><text fill="#303030" font-family="Verdana" font-size="11.4583" lengthAdjust="spacing" textLength="31.5999" x="174.7396" y="292.5408">email</text><line style="stroke:#F3F3F3;stroke-width:1.0417;" x1="145.5729" x2="245.5246" y1="309.8265" y2="309.8265"/><ellipse cx="155.9896" cy="332.6414" fill="none" rx="3.125" ry="3.125" style="stroke:#888888;stroke-width:1.0417;"/><text fill="#303030" font-family="Verdana" font-size="11.4583" lengthAdjust="spacing" textLength="47.0306" x="174.7396" y="335.0457">__str__()</text></g><!--class Aluno--><g class="entity" data-entity="Aluno" data-source-line="10" data-uid="ent0003" id="entity_Aluno"><rect fill="url(#gggfz0mpvb8fq0)" height="300.4557" rx="7.8125" ry="7.8125" style="stroke:#F3F3F3;stroke-width:1.0417;" width="283.1248" x="152.9375" y="517.3438"/><rect fill="url(#gggfz0mpvb8fq1)" height="44.5882" rx="7.8125" ry="7.8125" style="stroke:url(#gggfz0mpvb8fq1);stroke-width:1.0417;" width="283.1248" x="152.9375" y="517.3438"/><rect fill="url(#gggfz0mpvb8fq1)" height="7.8125" style="stroke:url(#gggfz0mpvb8fq1);stroke-width:1.0417;" width="283.1248" x="152.9375" y="554.1195"/><rect fill="none" height="300.4557" rx="7.8125" ry="7.8125" style="stroke:#F3F3F3;stroke-width:1.0417;" width="283.1248" x="152.9375" y="517.3438"/><ellipse cx="263.6382" cy="539.6379" fill="#DBDBDB" rx="10.4167" ry="10.4167" style="stroke:#A8A8A8;stroke-width:1.0417;"/><path d="M265.5425,544.0649 Q265.1194,544.2765 264.6473,544.3905 Q264.1753,544.5044 263.6708,544.5044 Q261.8153,544.5044 260.8388,543.3 Q259.8785,542.0793 259.8785,539.7843 Q259.8785,537.4731 260.8388,536.2687 Q261.8153,535.048 263.6708,535.048 Q264.1753,535.048 264.6473,535.1619 Q265.1356,535.2596 265.5425,535.4875 L265.5425,537.4894 Q265.0868,537.0662 264.6473,536.8709 Q264.2079,536.6593 263.7522,536.6593 Q262.7593,536.6593 262.2548,537.4569 Q261.7502,538.2381 261.7502,539.7843 Q261.7502,541.3143 262.2548,542.0955 Q262.7593,542.8768 263.7522,542.8768 Q264.2079,542.8768 264.6473,542.6815 Q265.0868,542.4862 265.5425,542.063 L265.5425,544.0649 Z " fill="#336699"/><text fill="#303030" font-family="Verdana" font-size="11.4583" lengthAdjust="spacing" textLength="32.5567" x="293.8466" y="543.6046">Aluno</text><line style="stroke:#F3F3F3;stroke-width:1.0417;" x1="153.9792" x2="435.0206" y1="561.932" y2="561.932"/><rect fill="none" height="6.25" style="stroke:#888888;stroke-width:1.0417;" width="6.25" x="161.2708" y="581.6219"/><text fill="#303030" font-family="Verdana" font-size="11.4583" lengthAdjust="spacing" textLength="71.9671" x="183.1458" y="587.1512">__notas: dict</text><line style="stroke:#F3F3F3;stroke-width:1.0417;" x1="153.9792" x2="435.0206" y1="604.4368" y2="604.4368"/><ellipse cx="164.3958" cy="627.2518" fill="none" rx="3.125" ry="3.125" style="stroke:#888888;stroke-width:1.0417;"/><text fill="#303030" font-family="Verdana" font-size="11.4583" lengthAdjust="spacing" textLength="236.2498" x="183.1458" y="629.6561">adicionar_nota(disciplina: str, nota: float)</text><ellipse cx="164.3958" cy="661.4233" fill="none" rx="3.125" ry="3.125" style="stroke:#888888;stroke-width:1.0417;"/><text fill="#303030" font-family="Verdana" font-size="11.4583" lengthAdjust="spacing" textLength="205.0975" x="183.1458" y="663.8276">calcular_media(disciplina: str): float</text><ellipse cx="164.3958" cy="695.5949" fill="none" rx="3.125" ry="3.125" style="stroke:#888888;stroke-width:1.0417;"/><text fill="#303030" font-family="Verdana" font-size="11.4583" lengthAdjust="spacing" textLength="47.4223" x="183.1458" y="697.9992">to_dict()</text><ellipse cx="164.3958" cy="729.7664" fill="none" rx="3.125" ry="3.125" style="stroke:#888888;stroke-width:1.0417;"/><text fill="#303030" font-family="Verdana" font-size="11.4583" lengthAdjust="spacing" textLength="88.6454" x="183.1458" y="732.1707">from_dict(data)</text><ellipse cx="164.3958" cy="763.938" fill="none" rx="3.125" ry="3.125" style="stroke:#888888;stroke-width:1.0417;"/><text fill="#303030" font-family="Verdana" font-size="11.4583" lengthAdjust="spacing" textLength="47.0306" x="183.1458" y="766.3423">__str__()</text><ellipse cx="164.3958" cy="798.1095" fill="none" rx="3.125" ry="3.125" style="stroke:#888888;stroke-width:1.0417;"/><text fill="#303030" font-family="Verdana" font-size="11.4583" lengthAdjust="spacing" textLength="168.9041" x="183.1458" y="800.5138">enviar_email(mensagem: str)</text></g><!--class Professor--><g class="entity" data-entity="Professor" data-source-line="20" data-uid="ent0004" id="entity_Professor"><rect fill="url(#gggfz0mpvb8fq0)" height="163.7695" rx="7.8125" ry="7.8125" style="stroke:#F3F3F3;stroke-width:1.0417;" width="159.8414" x="17.7083" y="880.3021"/><rect fill="url(#gggfz0mpvb8fq1)" height="44.5882" rx="7.8125" ry="7.8125" style="stroke:url(#gggfz0mpvb8fq1);stroke-width:1.0417;" width="159.8414" x="17.7083" y="880.3021"/><rect fill="url(#gggfz0mpvb8fq1)" height="7.8125" style="stroke:url(#gggfz0mpvb8fq1);stroke-width:1.0417;" width="159.8414" x="17.7083" y="917.0778"/><rect fill="none" height="163.7695" rx="7.8125" ry="7.8125" style="stroke:#F3F3F3;stroke-width:1.0417;" width="159.8414" x="17.7083" y="880.3021"/><ellipse cx="56.7639" cy="902.5962" fill="#DBDBDB" rx="10.4167" ry="10.4167" style="stroke:#A8A8A8;stroke-width:1.0417;"/><path d="M58.6682,907.0233 Q58.2451,907.2349 57.7731,907.3488 Q57.3011,907.4627 56.7965,907.4627 Q54.941,907.4627 53.9645,906.2583 Q53.0042,905.0376 53.0042,902.7427 Q53.0042,900.4315 53.9645,899.2271 Q54.941,898.0063 56.7965,898.0063 Q57.3011,898.0063 57.7731,898.1203 Q58.2613,898.2179 58.6682,898.4458 L58.6682,900.4478 Q58.2125,900.0246 57.7731,899.8293 Q57.3336,899.6177 56.8779,899.6177 Q55.885,899.6177 55.3805,900.4152 Q54.8759,901.1965 54.8759,902.7427 Q54.8759,904.2726 55.3805,905.0539 Q55.885,905.8351 56.8779,905.8351 Q57.3336,905.8351 57.7731,905.6398 Q58.2125,905.4445 58.6682,905.0213 L58.6682,907.0233 Z " fill="#336699"/><text fill="#303030" font-family="Verdana" font-size="11.4583" lengthAdjust="spacing" textLength="53.3752" x="86.1606" y="906.563">Professor</text><line style="stroke:#F3F3F3;stroke-width:1.0417;" x1="18.75" x2="176.5081" y1="924.8903" y2="924.8903"/><rect fill="none" height="6.25" style="stroke:#888888;stroke-width:1.0417;" width="6.25" x="26.0417" y="944.5802"/><text fill="#303030" font-family="Verdana" font-size="11.4583" lengthAdjust="spacing" textLength="112.9664" x="47.9167" y="950.1095">__especialidade: str</text><ellipse cx="29.1667" cy="981.8768" fill="none" rx="3.125" ry="3.125" style="stroke:#888888;stroke-width:1.0417;"/><text fill="#303030" font-family="Verdana" font-size="11.4583" lengthAdjust="spacing" textLength="78.832" x="47.9167" y="984.2811">especialidade</text><line style="stroke:#F3F3F3;stroke-width:1.0417;" x1="18.75" x2="176.5081" y1="1001.5667" y2="1001.5667"/><ellipse cx="29.1667" cy="1024.3817" fill="none" rx="3.125" ry="3.125" style="stroke:#888888;stroke-width:1.0417;"/><text fill="#303030" font-family="Verdana" font-size="11.4583" lengthAdjust="spacing" textLength="47.0306" x="47.9167" y="1026.7859">__str__()</text></g><!--class Disciplina--><g class="entity" data-entity="Disciplina" data-source-line="26" data-uid="ent0005" id="entity_Disciplina"><rect fill="url(#gggfz0mpvb8fq0)" height="232.1126" rx="7.8125" ry="7.8125" style="stroke:#F3F3F3;stroke-width:1.0417;" width="172.9502" x="472.6146" y="551.5208"/><rect fill="url(#gggfz0mpvb8fq1)" height="44.5882" rx="7.8125" ry="7.8125" style="stroke:url(#gggfz0mpvb8fq1);stroke-width:1.0417;" width="172.9502" x="472.6146" y="551.5208"/><rect fill="url(#gggfz0mpvb8fq1)" height="7.8125" style="stroke:url(#gggfz0mpvb8fq1);stroke-width:1.0417;" width="172.9502" x="472.6146" y="588.2965"/><rect fill="none" height="232.1126" rx="7.8125" ry="7.8125" style="stroke:#F3F3F3;stroke-width:1.0417;" width="172.9502" x="472.6146" y="551.5208"/><ellipse cx="516.8145" cy="573.8149" fill="#DBDBDB" rx="10.4167" ry="10.4167" style="stroke:#A8A8A8;stroke-width:1.0417;"/><path d="M518.7188,578.242 Q518.2956,578.4536 517.8236,578.5675 Q517.3516,578.6815 516.847,578.6815 Q514.9915,578.6815 514.015,577.4771 Q513.0547,576.2563 513.0547,573.9614 Q513.0547,571.6502 514.015,570.4458 Q514.9915,569.2251 516.847,569.2251 Q517.3516,569.2251 517.8236,569.339 Q518.3119,569.4367 518.7188,569.6646 L518.7188,571.6665 Q518.263,571.2433 517.8236,571.048 Q517.3841,570.8364 516.9284,570.8364 Q515.9356,570.8364 515.431,571.634 Q514.9264,572.4152 514.9264,573.9614 Q514.9264,575.4914 515.431,576.2726 Q515.9356,577.0539 516.9284,577.0539 Q517.3841,577.0539 517.8236,576.8586 Q518.263,576.6632 518.7188,576.2401 L518.7188,578.242 Z " fill="#336699"/><text fill="#303030" font-family="Verdana" font-size="11.4583" lengthAdjust="spacing" textLength="55.3838" x="547.0228" y="577.7817">Disciplina</text><line style="stroke:#F3F3F3;stroke-width:1.0417;" x1="473.6563" x2="644.5232" y1="596.109" y2="596.109"/><rect fill="none" height="6.25" style="stroke:#888888;stroke-width:1.0417;" width="6.25" x="480.9479" y="615.799"/><text fill="#303030" font-family="Verdana" font-size="11.4583" lengthAdjust="spacing" textLength="66.6183" x="502.8229" y="621.3283">__nome: str</text><rect fill="none" height="6.25" style="stroke:#888888;stroke-width:1.0417;" width="6.25" x="480.9479" y="649.9705"/><text fill="#303030" font-family="Verdana" font-size="11.4583" lengthAdjust="spacing" textLength="126.0752" x="502.8229" y="655.4998">__professor: Professor</text><ellipse cx="484.0729" cy="687.2671" fill="none" rx="3.125" ry="3.125" style="stroke:#888888;stroke-width:1.0417;"/><text fill="#303030" font-family="Verdana" font-size="11.4583" lengthAdjust="spacing" textLength="32.4839" x="502.8229" y="689.6714">nome</text><ellipse cx="484.0729" cy="721.4386" fill="none" rx="3.125" ry="3.125" style="stroke:#888888;stroke-width:1.0417;"/><text fill="#303030" font-family="Verdana" font-size="11.4583" lengthAdjust="spacing" textLength="53.7389" x="502.8229" y="723.8429">professor</text><line style="stroke:#F3F3F3;stroke-width:1.0417;" x1="473.6563" x2="644.5232" y1="741.1286" y2="741.1286"/><ellipse cx="484.0729" cy="763.9435" fill="none" rx="3.125" ry="3.125" style="stroke:#888888;stroke-width:1.0417;"/><text fill="#303030" font-family="Verdana" font-size="11.4583" lengthAdjust="spacing" textLength="47.0306" x="502.8229" y="766.3478">__str__()</text></g><!--class Turma--><g class="entity" data-entity="Turma" data-source-line="34" data-uid="ent0006" id="entity_Turma"><rect fill="url(#gggfz0mpvb8fq0)" height="437.1419" rx="7.8125" ry="7.8125" style="stroke:#F3F3F3;stroke-width:1.0417;" width="285.0662" x="349.8854" y="17.7083"/><rect fill="url(#gggfz0mpvb8fq1)" height="44.5882" rx="7.8125" ry="7.8125" style="stroke:url(#gggfz0mpvb8fq1);stroke-width:1.0417;" width="285.0662" x="349.8854" y="17.7083"/><rect fill="url(#gggfz0mpvb8fq1)" height="7.8125" style="stroke:url(#gggfz0mpvb8fq1);stroke-width:1.0417;" width="285.0662" x="349.8854" y="54.484"/><rect fill="none" height="437.1419" rx="7.8125" ry="7.8125" style="stroke:#F3F3F3;stroke-width:1.0417;" width="285.0662" x="349.8854" y="17.7083"/><ellipse cx="459.2574" cy="40.0024" fill="#DBDBDB" rx="10.4167" ry="10.4167" style="stroke:#A8A8A8;stroke-width:1.0417;"/><path d="M461.1617,44.4295 Q460.7385,44.6411 460.2665,44.755 Q459.7945,44.869 459.2899,44.869 Q457.4344,44.869 456.4579,43.6646 Q455.4976,42.4438 455.4976,40.1489 Q455.4976,37.8377 456.4579,36.6333 Q457.4344,35.4126 459.2899,35.4126 Q459.7945,35.4126 460.2665,35.5265 Q460.7548,35.6242 461.1617,35.8521 L461.1617,37.854 Q460.7059,37.4308 460.2665,37.2355 Q459.827,37.0239 459.3713,37.0239 Q458.3785,37.0239 457.8739,37.8215 Q457.3693,38.6027 457.3693,40.1489 Q457.3693,41.6789 457.8739,42.4601 Q458.3785,43.2414 459.3713,43.2414 Q459.827,43.2414 460.2665,43.0461 Q460.7059,42.8507 461.1617,42.4276 L461.1617,44.4295 Z " fill="#336699"/><text fill="#303030" font-family="Verdana" font-size="11.4583" lengthAdjust="spacing" textLength="37.1557" x="489.4657" y="43.9692">Turma</text><line style="stroke:#F3F3F3;stroke-width:1.0417;" x1="350.9271" x2="633.91" y1="62.2965" y2="62.2965"/><rect fill="none" height="6.25" style="stroke:#888888;stroke-width:1.0417;" width="6.25" x="358.2188" y="81.9865"/><text fill="#303030" font-family="Verdana" font-size="11.4583" lengthAdjust="spacing" textLength="66.6183" x="380.0938" y="87.5158">__nome: str</text><rect fill="none" height="6.25" style="stroke:#888888;stroke-width:1.0417;" width="6.25" x="358.2188" y="116.158"/><text fill="#303030" font-family="Verdana" font-size="11.4583" lengthAdjust="spacing" textLength="73.5001" x="380.0938" y="121.6873">__alunos: list</text><rect fill="none" height="6.25" style="stroke:#888888;stroke-width:1.0417;" width="6.25" x="358.2188" y="150.3296"/><text fill="#303030" font-family="Verdana" font-size="11.4583" lengthAdjust="spacing" textLength="95.5943" x="380.0938" y="155.8589">__disciplinas: list</text><ellipse cx="361.3438" cy="187.6261" fill="none" rx="3.125" ry="3.125" style="stroke:#888888;stroke-width:1.0417;"/><text fill="#303030" font-family="Verdana" font-size="11.4583" lengthAdjust="spacing" textLength="32.4839" x="380.0938" y="190.0304">nome</text><line style="stroke:#F3F3F3;stroke-width:1.0417;" x1="350.9271" x2="633.91" y1="207.3161" y2="207.3161"/><ellipse cx="361.3438" cy="230.131" fill="none" rx="3.125" ry="3.125" style="stroke:#888888;stroke-width:1.0417;"/><text fill="#303030" font-family="Verdana" font-size="11.4583" lengthAdjust="spacing" textLength="171.1756" x="380.0938" y="232.5353">adicionar_aluno(aluno: Aluno)</text><ellipse cx="361.3438" cy="264.3026" fill="none" rx="3.125" ry="3.125" style="stroke:#888888;stroke-width:1.0417;"/><text fill="#303030" font-family="Verdana" font-size="11.4583" lengthAdjust="spacing" textLength="238.1912" x="380.0938" y="266.7068">adicionar_disciplina(disciplina: Disciplina)</text><ellipse cx="361.3438" cy="298.4741" fill="none" rx="3.125" ry="3.125" style="stroke:#888888;stroke-width:1.0417;"/><text fill="#303030" font-family="Verdana" font-size="11.4583" lengthAdjust="spacing" textLength="80.9413" x="380.0938" y="300.8784">listar_alunos()</text><ellipse cx="361.3438" cy="332.6457" fill="none" rx="3.125" ry="3.125" style="stroke:#888888;stroke-width:1.0417;"/><text fill="#303030" font-family="Verdana" font-size="11.4583" lengthAdjust="spacing" textLength="103.0355" x="380.0938" y="335.0499">listar_disciplinas()</text><ellipse cx="361.3438" cy="366.8172" fill="none" rx="3.125" ry="3.125" style="stroke:#888888;stroke-width:1.0417;"/><text fill="#303030" font-family="Verdana" font-size="11.4583" lengthAdjust="spacing" textLength="47.4223" x="380.0938" y="369.2215">to_dict()</text><ellipse cx="361.3438" cy="400.9888" fill="none" rx="3.125" ry="3.125" style="stroke:#888888;stroke-width:1.0417;"/><text fill="#303030" font-family="Verdana" font-size="11.4583" lengthAdjust="spacing" textLength="88.6454" x="380.0938" y="403.393">from_dict(data)</text><ellipse cx="361.3438" cy="435.1603" fill="none" rx="3.125" ry="3.125" style="stroke:#888888;stroke-width:1.0417;"/><text fill="#303030" font-family="Verdana" font-size="11.4583" lengthAdjust="spacing" textLength="47.0306" x="380.0938" y="437.5646">__str__()</text></g><!--class EmailNotificacaoMixin--><g class="entity" data-entity="EmailNotificacaoMixin" data-source-line="48" data-uid="ent0007" id="entity_EmailNotificacaoMixin"><rect fill="url(#gggfz0mpvb8fq0)" height="95.4264" rx="7.8125" ry="7.8125" style="stroke:#F3F3F3;stroke-width:1.0417;" width="215.7791" x="213.6979" y="914.4792"/><rect fill="url(#gggfz0mpvb8fq1)" height="44.5882" rx="7.8125" ry="7.8125" style="stroke:url(#gggfz0mpvb8fq1);stroke-width:1.0417;" width="215.7791" x="213.6979" y="914.4792"/><rect fill="url(#gggfz0mpvb8fq1)" height="7.8125" style="stroke:url(#gggfz0mpvb8fq1);stroke-width:1.0417;" width="215.7791" x="213.6979" y="951.2549"/><rect fill="none" height="95.4264" rx="7.8125" ry="7.8125" style="stroke:#F3F3F3;stroke-width:1.0417;" width="215.7791" x="213.6979" y="914.4792"/><ellipse cx="245.1476" cy="936.7733" fill="#DBDBDB" rx="10.4167" ry="10.4167" style="stroke:#A8A8A8;stroke-width:1.0417;"/><path d="M247.0518,941.2004 Q246.6287,941.4119 246.1567,941.5259 Q245.6847,941.6398 245.1801,941.6398 Q243.3246,941.6398 242.3481,940.4354 Q241.3878,939.2147 241.3878,936.9198 Q241.3878,934.6086 242.3481,933.4041 Q243.3246,932.1834 245.1801,932.1834 Q245.6847,932.1834 246.1567,932.2974 Q246.6449,932.395 247.0518,932.6229 L247.0518,934.6248 Q246.5961,934.2017 246.1567,934.0063 Q245.7172,933.7948 245.2615,933.7948 Q244.2686,933.7948 243.7641,934.5923 Q243.2595,935.3735 243.2595,936.9198 Q243.2595,938.4497 243.7641,939.231 Q244.2686,940.0122 245.2615,940.0122 Q245.7172,940.0122 246.1567,939.8169 Q246.5961,939.6216 247.0518,939.1984 L247.0518,941.2004 Z " fill="#336699"/><text fill="#303030" font-family="Verdana" font-size="11.4583" lengthAdjust="spacing" textLength="126.2151" x="272.854" y="940.7401">EmailNotificacaoMixin</text><line style="stroke:#F3F3F3;stroke-width:1.0417;" x1="214.7396" x2="428.4354" y1="959.0674" y2="959.0674"/><line style="stroke:#F3F3F3;stroke-width:1.0417;" x1="214.7396" x2="428.4354" y1="967.4007" y2="967.4007"/><ellipse cx="225.1563" cy="990.2157" fill="none" rx="3.125" ry="3.125" style="stroke:#888888;stroke-width:1.0417;"/><text fill="#303030" font-family="Verdana" font-size="11.4583" lengthAdjust="spacing" textLength="168.9041" x="243.9063" y="992.6199">enviar_email(mensagem: str)</text></g><!--reverse link Pessoa to Aluno--><g class="link" data-entity-1="Pessoa" data-entity-2="Aluno" data-source-line="52" data-uid="lnk8" id="link_Pessoa_Aluno"><path codeLine="52" d="M226.3395,370.8952 C237.9957,421.4265 247.6042,463.1042 260.0313,517.0104" fill="none" id="Pessoa-backto-Aluno" style="stroke:#E2E2E2;stroke-width:3.125;"/><polygon fill="none" points="222.125,352.625,220.2494,372.3,232.4295,369.4904,222.125,352.625" style="stroke:#E2E2E2;stroke-width:3.125;"/></g><!--reverse link Pessoa to Professor--><g class="link" data-entity-1="Pessoa" data-entity-2="Professor" data-source-line="53" data-uid="lnk9" id="link_Pessoa_Professor"><path codeLine="53" d="M163.04,370.7912 C151.5609,421.135 143.2917,462.75 135.125,517.3438 C116.3229,643.1458 106.1979,790.5208 101.3646,879.8021" fill="none" id="Pessoa-backto-Professor" style="stroke:#E2E2E2;stroke-width:3.125;"/><polygon fill="none" points="167.2083,352.5104,156.9464,369.4018,169.1336,372.1807,167.2083,352.5104" style="stroke:#E2E2E2;stroke-width:3.125;"/></g><!--link Aluno to EmailNotificacaoMixin--><g class="link" data-entity-1="Aluno" data-entity-2="EmailNotificacaoMixin" data-source-line="54" data-uid="lnk10" id="link_Aluno_EmailNotificacaoMixin"><path codeLine="54" d="M308.3646,818.3125 C311.5938,853.1667 313.0616,869.1008 315.5095,895.5175" fill="none" id="Aluno-to-EmailNotificacaoMixin" style="stroke:#E2E2E2;stroke-width:3.125;stroke-dasharray:7.0,7.0;"/><polygon fill="none" points="317.2396,914.1875,321.7329,894.9408,309.2862,896.0942,317.2396,914.1875" style="stroke:#E2E2E2;stroke-width:3.125;"/></g><!--reverse link Disciplina to Professor--><g class="link" data-entity-1="Disciplina" data-entity-2="Professor" data-source-line="55" data-uid="lnk11" id="link_Disciplina_Professor"><path codeLine="55" d="M483.1871,793.2226 C471.9371,806.0559 467.6354,808.4479 453.875,817.8021 C356.1875,884.2083 301.1979,827.4583 195.5417,880.3021 C189.6354,883.2604 183.7604,886.6354 178,890.2917" fill="none" id="Disciplina-backto-Professor" style="stroke:#E2E2E2;stroke-width:3.125;"/><polygon fill="none" points="491.4271,783.8229,484.1739,785.7761,483.1871,793.2226,490.4403,791.2694,491.4271,783.8229" style="stroke:#E2E2E2;stroke-width:3.125;"/><text fill="#303030" font-family="Verdana" font-size="12.5" lengthAdjust="spacing" textLength="7.9529" x="468.7588" y="814.0042">1</text><text fill="#303030" font-family="Verdana" font-size="12.5" lengthAdjust="spacing" textLength="7.9529" x="196.2643" y="870.6007">1</text></g><!--reverse link Turma to Aluno--><g class="link" data-entity-1="Turma" data-entity-2="Aluno" data-source-line="56" data-uid="lnk12" id="link_Turma_Aluno"><path codeLine="56" d="M386.7751,466.4237 C377.1084,487.3821 372.6979,496.9479 363.4479,517.0208" fill="none" id="Turma-backto-Aluno" style="stroke:#E2E2E2;stroke-width:3.125;"/><polygon fill="none" points="392.0104,455.0729,385.6091,459.0032,386.7751,466.4237,393.1763,462.4934,392.0104,455.0729" style="stroke:#E2E2E2;stroke-width:3.125;"/><text fill="#303030" font-family="Verdana" font-size="12.5" lengthAdjust="spacing" textLength="7.9529" x="370.5569" y="484.8521">1</text><text fill="#303030" font-family="Verdana" font-size="12.5" lengthAdjust="spacing" textLength="6.25" x="349.8113" y="495.5197">*</text></g><!--reverse link Turma to Disciplina--><g class="link" data-entity-1="Turma" data-entity-2="Disciplina" data-source-line="57" data-uid="lnk13" id="link_Turma_Disciplina"><path codeLine="57" d="M528.1581,467.4248 C533.3143,500.6227 536.5417,521.375 541.1771,551.1979" fill="none" id="Turma-backto-Disciplina" style="stroke:#E2E2E2;stroke-width:3.125;"/><polygon fill="none" points="526.2396,455.0729,523.0815,461.8884,528.1581,467.4248,531.3161,460.6094,526.2396,455.0729" style="stroke:#E2E2E2;stroke-width:3.125;"/><text fill="#303030" font-family="Verdana" font-size="12.5" lengthAdjust="spacing" textLength="7.9529" x="509.1904" y="484.8521">1</text><text fill="#303030" font-family="Verdana" font-size="12.5" lengthAdjust="spacing" textLength="6.25" x="522.3971" y="529.9023">*</text></g><!--SRC=[bLFBJiCm4BpdAqnF2T1AN2E4L0cEe1wuMol7QLVo8x9T1AByE_4wZPC-XBWazgntnZkJt8ITr98ftEx2ri5N8HHuppRIUmliks1ioOpLicO-EDf93QYEspigqe9mMd7U5palg-Ad6FZMQc_iGCUviG5ypHeKWHgWNw4ruAXIDkW5TWeDaCmzYsZDMcKXLDGWG8czwizhsU1PGpMSfQF1ygXJfiRMMPts3GIeJgvBOvWFx8bfcb9Bus4hTQBDusoSRQD3RXn9-auA18KDD3AxCuElcVCyNd_YqDHophkZO9srv_PtC_Y2ollUwUi240FgCr7emm1bLpC-4SoXKMz9ppebNPsSo5IphFBWgI6A7FbyESCcbnaA_mbsDE4bnlfc0xOeG81znKyqPCgVoG-_nEDXkKn3pf2SIlhKLwl3qsMrOXBtuc71RDyTtvaX9JNMRXU3tZcUgNu1]--></g></svg>